<?xml version="1.0" encoding="UTF-8" standalone="no"?>
<!DOCTYPE svg PUBLIC "-//W3C//DTD SVG 1.1//EN" "http://www.w3.org/Graphics/SVG/1.1/DTD/svg11.dtd">
<svg width="100%" height="100%" viewBox="0 0 1810 975" version="1.1" xmlns="http://www.w3.org/2000/svg" xmlns:xlink="http://www.w3.org/1999/xlink" xml:space="preserve" xmlns:serif="http://www.serif.com/" style="fill-rule:evenodd;clip-rule:evenodd;stroke-linejoin:round;stroke-miterlimit:2;">
    <g id="Artboard1" transform="matrix(1,0,0,1,-1015,-591.674)">
        <rect x="1015" y="591.674" width="1810" height="975.445" style="fill:none;"/>
        <clipPath id="_clip1">
            <rect x="1015" y="591.674" width="1810" height="975.445"/>
        </clipPath>
        <g clip-path="url(#_clip1)">
            <g id="Font:-Tex-Gyre-Adventor" serif:id="Font: Tex Gyre Adventor" transform="matrix(1,0,0,1,0.99848,0.673773)">
                <g>
                    <g transform="matrix(95.144,0,0,95.144,-42413.3,-108396)">
                        <path d="M458.701,1148C458.701,1147.53 458.508,1147.23 457.803,1146.96C457.474,1146.84 457.464,1146.83 457.417,1146.81C457.29,1146.73 457.224,1146.62 457.224,1146.49C457.224,1146.28 457.37,1146.14 457.582,1146.14C457.798,1146.14 457.93,1146.27 457.948,1146.51L458.616,1146.51C458.583,1145.89 458.146,1145.52 457.586,1145.52C457.027,1145.52 456.575,1145.95 456.575,1146.51C456.575,1146.94 456.834,1147.28 457.3,1147.45C457.76,1147.62 457.798,1147.64 457.901,1147.72C458.005,1147.8 458.061,1147.93 458.061,1148.07C458.061,1148.32 457.868,1148.49 457.591,1148.49C457.304,1148.49 457.149,1148.35 457.121,1148.06L456.449,1148.06C456.505,1148.72 456.98,1149.12 457.591,1149.12C458.216,1149.12 458.701,1148.63 458.701,1148Z" style="fill:rgb(255,102,0);fill-rule:nonzero;stroke:rgb(255,102,0);stroke-width:0.01px;"/>
                    </g>
                    <g transform="matrix(95.144,0,0,95.144,-42413.3,-108396)">
                        <path d="M461.014,1149.05L461.014,1148.44L459.792,1148.44L459.792,1147.63L460.962,1147.63L460.962,1147.01L459.792,1147.01L459.792,1146.19L461.014,1146.19L461.014,1145.58L459.147,1145.58L459.147,1149.05L461.014,1149.05Z" style="fill:rgb(255,102,0);fill-rule:nonzero;stroke:rgb(255,102,0);stroke-width:0.01px;"/>
                    </g>
                    <g transform="matrix(95.144,0,0,95.144,-42413.3,-108396)">
                        <path d="M464.846,1148.09L464.089,1148.09C463.807,1148.38 463.562,1148.49 463.229,1148.49C462.589,1148.49 462.063,1147.96 462.063,1147.31C462.063,1146.66 462.552,1146.14 463.215,1146.14C463.619,1146.14 463.892,1146.27 464.127,1146.58L464.846,1146.58C464.54,1145.9 463.915,1145.52 463.2,1145.52C462.218,1145.52 461.414,1146.32 461.414,1147.31C461.414,1148.31 462.227,1149.12 463.243,1149.12C463.953,1149.12 464.573,1148.72 464.846,1148.09Z" style="fill:rgb(255,102,0);fill-rule:nonzero;stroke:rgb(255,102,0);stroke-width:0.01px;"/>
                    </g>
                    <g transform="matrix(67.2769,-67.2769,67.2769,67.2769,-106590,-45012.9)">
                        <path d="M468.702,1147.31C468.702,1148.33 467.921,1149.12 466.91,1149.12C465.89,1149.12 465.081,1148.32 465.081,1147.32C465.081,1146.3 465.88,1145.52 466.915,1145.52C467.907,1145.52 468.702,1146.32 468.702,1147.31ZM465.73,1147.32C465.73,1147.32 465.73,1147.32 465.73,1147.32C465.73,1147.98 466.247,1148.49 466.906,1148.49C467.564,1148.49 468.053,1147.99 468.053,1147.32C468.053,1147.32 468.053,1147.32 468.053,1147.32L465.73,1147.32Z" style="fill:rgb(255,102,0);stroke:rgb(255,102,0);stroke-width:0.01px;"/>
                    </g>
                    <g transform="matrix(95.144,0,0,95.144,-42413.3,-108396)">
                        <path d="M472.026,1149.05L472.026,1145.58L471.382,1145.58L471.382,1148.11L469.943,1145.58L469.209,1145.58L469.209,1149.05L469.854,1149.05L469.854,1146.53L471.306,1149.05L472.026,1149.05Z" style="fill:rgb(255,102,0);fill-rule:nonzero;stroke:rgb(255,102,0);stroke-width:0.01px;"/>
                    </g>
                    <g transform="matrix(95.144,0,0,95.144,-42413.3,-108396)">
                        <path d="M475.472,1147.32C475.472,1146.66 475.2,1146.12 474.715,1145.83C474.443,1145.66 474.029,1145.58 473.483,1145.58L472.689,1145.58L472.689,1149.05L473.498,1149.05C474.024,1149.05 474.339,1149 474.621,1148.86C475.157,1148.6 475.472,1148.02 475.472,1147.32ZM474.823,1147.32C474.823,1147.74 474.631,1148.11 474.32,1148.28C474.128,1148.39 473.86,1148.44 473.474,1148.44L473.333,1148.44L473.333,1146.19L473.46,1146.19C473.869,1146.19 474.09,1146.23 474.292,1146.34C474.621,1146.51 474.823,1146.88 474.823,1147.32Z" style="fill:rgb(255,102,0);fill-rule:nonzero;stroke:rgb(255,102,0);stroke-width:0.01px;"/>
                    </g>
                </g>
                <g>
                    <g transform="matrix(103.379,0,0,103.379,-46269.8,-117847)">
                        <path d="M461.605,1155.11L461.605,1149.32L460.533,1149.32L460.533,1151.65L458.465,1151.65L458.465,1149.32L457.393,1149.32L457.393,1155.11L458.465,1155.11L458.465,1152.68L460.533,1152.68L460.533,1155.11L461.605,1155.11Z" style="fill:rgb(255,102,0);fill-rule:nonzero;stroke:rgb(255,102,0);stroke-width:0.01px;"/>
                    </g>
                    <g transform="matrix(103.379,0,0,103.379,-46269.8,-117847)">
                        <path d="M467.924,1155.11L465.497,1149.32L464.651,1149.32L462.24,1155.11L463.422,1155.11L464.064,1153.61L466.123,1153.61L466.742,1155.11L467.924,1155.11ZM465.693,1152.59L464.456,1152.59L465.074,1150.83L465.693,1152.59Z" style="fill:rgb(255,102,0);fill-rule:nonzero;stroke:rgb(255,102,0);stroke-width:0.01px;"/>
                    </g>
                    <g transform="matrix(103.379,0,0,103.379,-46269.8,-117847)">
                        <path d="M471.354,1155.11L471.354,1154.08L469.584,1154.08L469.584,1149.32L468.512,1149.32L468.512,1155.11L471.354,1155.11Z" style="fill:rgb(255,102,0);fill-rule:nonzero;stroke:rgb(255,102,0);stroke-width:0.01px;"/>
                    </g>
                    <g transform="matrix(103.379,0,0,103.379,-46269.8,-117847)">
                        <path d="M474.901,1150.35L474.901,1149.32L471.957,1149.32L471.957,1155.11L473.03,1155.11L473.03,1152.74L474.815,1152.74L474.815,1151.71L473.03,1151.71L473.03,1150.35L474.901,1150.35Z" style="fill:rgb(255,102,0);fill-rule:nonzero;stroke:rgb(255,102,0);stroke-width:0.01px;"/>
                    </g>
                </g>
            </g>
        </g>
    </g>
</svg>
